<mxfile host="app.diagrams.net" modified="2023-07-17T16:06:24.512Z" agent="Mozilla/5.0 (Windows NT 10.0; Win64; x64) AppleWebKit/537.36 (KHTML, like Gecko) Chrome/114.0.0.0 YaBrowser/23.7.0.2526 Yowser/2.5 Safari/537.36" etag="sgp5FkkVfVq7G5IT-ZcU" version="21.6.2" type="device">
  <diagram id="AjvImhOtETP2bFbR_Lft" name="Страница 1">
    <mxGraphModel dx="1114" dy="611" grid="1" gridSize="10" guides="1" tooltips="1" connect="1" arrows="1" fold="1" page="1" pageScale="1" pageWidth="827" pageHeight="2000" math="0" shadow="0">
      <root>
        <mxCell id="0" />
        <mxCell id="1" parent="0" />
        <mxCell id="wRvC3EdJCZmCz9VfIEuK-1" value="Пользователь" style="shape=umlActor;verticalLabelPosition=bottom;verticalAlign=top;html=1;outlineConnect=0;" parent="1" vertex="1">
          <mxGeometry x="45" y="20" width="30" height="60" as="geometry" />
        </mxCell>
        <mxCell id="wRvC3EdJCZmCz9VfIEuK-2" value="Интерфейс" style="rounded=0;whiteSpace=wrap;html=1;" parent="1" vertex="1">
          <mxGeometry x="220" y="20" width="120" height="60" as="geometry" />
        </mxCell>
        <mxCell id="wRvC3EdJCZmCz9VfIEuK-3" value="Контролер" style="rounded=0;whiteSpace=wrap;html=1;" parent="1" vertex="1">
          <mxGeometry x="430" y="20" width="120" height="60" as="geometry" />
        </mxCell>
        <mxCell id="wRvC3EdJCZmCz9VfIEuK-4" value="База данных" style="rounded=0;whiteSpace=wrap;html=1;" parent="1" vertex="1">
          <mxGeometry x="650" y="20" width="120" height="60" as="geometry" />
        </mxCell>
        <mxCell id="wRvC3EdJCZmCz9VfIEuK-5" value="" style="endArrow=none;dashed=1;html=1;rounded=0;entryX=0.5;entryY=1;entryDx=0;entryDy=0;" parent="1" target="wRvC3EdJCZmCz9VfIEuK-2" edge="1">
          <mxGeometry width="50" height="50" relative="1" as="geometry">
            <mxPoint x="280" y="760" as="sourcePoint" />
            <mxPoint x="440" y="260" as="targetPoint" />
          </mxGeometry>
        </mxCell>
        <mxCell id="wRvC3EdJCZmCz9VfIEuK-6" value="" style="endArrow=none;dashed=1;html=1;rounded=0;entryX=0.5;entryY=1;entryDx=0;entryDy=0;" parent="1" target="wRvC3EdJCZmCz9VfIEuK-3" edge="1">
          <mxGeometry width="50" height="50" relative="1" as="geometry">
            <mxPoint x="490" y="760" as="sourcePoint" />
            <mxPoint x="440" y="150" as="targetPoint" />
          </mxGeometry>
        </mxCell>
        <mxCell id="wRvC3EdJCZmCz9VfIEuK-7" value="" style="endArrow=none;dashed=1;html=1;rounded=0;entryX=0.5;entryY=1;entryDx=0;entryDy=0;" parent="1" target="wRvC3EdJCZmCz9VfIEuK-4" edge="1">
          <mxGeometry width="50" height="50" relative="1" as="geometry">
            <mxPoint x="710" y="760" as="sourcePoint" />
            <mxPoint x="440" y="300" as="targetPoint" />
          </mxGeometry>
        </mxCell>
        <mxCell id="wRvC3EdJCZmCz9VfIEuK-8" value="" style="endArrow=none;dashed=1;html=1;rounded=0;startArrow=none;" parent="1" edge="1">
          <mxGeometry width="50" height="50" relative="1" as="geometry">
            <mxPoint x="60" y="610" as="sourcePoint" />
            <mxPoint x="60" y="100" as="targetPoint" />
          </mxGeometry>
        </mxCell>
        <mxCell id="wRvC3EdJCZmCz9VfIEuK-39" value="" style="endArrow=none;dashed=1;html=1;rounded=0;" parent="1" edge="1">
          <mxGeometry width="50" height="50" relative="1" as="geometry">
            <mxPoint x="60" y="760" as="sourcePoint" />
            <mxPoint x="60" y="615" as="targetPoint" />
          </mxGeometry>
        </mxCell>
        <mxCell id="XvZ1KUAscX0kWLPO2h44-1" value="" style="endArrow=classic;html=1;rounded=0;" edge="1" parent="1">
          <mxGeometry width="50" height="50" relative="1" as="geometry">
            <mxPoint x="70" y="170" as="sourcePoint" />
            <mxPoint x="270" y="170" as="targetPoint" />
          </mxGeometry>
        </mxCell>
        <mxCell id="XvZ1KUAscX0kWLPO2h44-2" value="1. Ввод данных" style="edgeLabel;html=1;align=center;verticalAlign=middle;resizable=0;points=[];fontSize=12;" vertex="1" connectable="0" parent="XvZ1KUAscX0kWLPO2h44-1">
          <mxGeometry x="-0.53" y="-3" relative="1" as="geometry">
            <mxPoint x="43" y="-13" as="offset" />
          </mxGeometry>
        </mxCell>
        <mxCell id="XvZ1KUAscX0kWLPO2h44-3" value="" style="endArrow=classic;html=1;rounded=0;" edge="1" parent="1">
          <mxGeometry width="50" height="50" relative="1" as="geometry">
            <mxPoint x="284" y="205" as="sourcePoint" />
            <mxPoint x="484" y="205" as="targetPoint" />
          </mxGeometry>
        </mxCell>
        <mxCell id="XvZ1KUAscX0kWLPO2h44-4" value="2. Передача данных" style="edgeLabel;html=1;align=center;verticalAlign=middle;resizable=0;points=[];fontSize=12;" vertex="1" connectable="0" parent="XvZ1KUAscX0kWLPO2h44-3">
          <mxGeometry x="-0.53" y="-3" relative="1" as="geometry">
            <mxPoint x="43" y="-13" as="offset" />
          </mxGeometry>
        </mxCell>
        <mxCell id="XvZ1KUAscX0kWLPO2h44-5" value="" style="endArrow=classic;html=1;rounded=0;" edge="1" parent="1">
          <mxGeometry width="50" height="50" relative="1" as="geometry">
            <mxPoint x="500" y="240" as="sourcePoint" />
            <mxPoint x="700" y="240" as="targetPoint" />
          </mxGeometry>
        </mxCell>
        <mxCell id="XvZ1KUAscX0kWLPO2h44-6" value="3. Поиск пользователя" style="edgeLabel;html=1;align=center;verticalAlign=middle;resizable=0;points=[];fontSize=12;" vertex="1" connectable="0" parent="XvZ1KUAscX0kWLPO2h44-5">
          <mxGeometry x="-0.53" y="-3" relative="1" as="geometry">
            <mxPoint x="43" y="-13" as="offset" />
          </mxGeometry>
        </mxCell>
        <mxCell id="XvZ1KUAscX0kWLPO2h44-7" value="" style="endArrow=classic;html=1;rounded=0;" edge="1" parent="1">
          <mxGeometry width="50" height="50" relative="1" as="geometry">
            <mxPoint x="700" y="290" as="sourcePoint" />
            <mxPoint x="500" y="290" as="targetPoint" />
          </mxGeometry>
        </mxCell>
        <mxCell id="XvZ1KUAscX0kWLPO2h44-8" value="&lt;font style=&quot;font-size: 12px;&quot;&gt;4. Результат поиска&lt;/font&gt;" style="edgeLabel;html=1;align=center;verticalAlign=middle;resizable=0;points=[];" vertex="1" connectable="0" parent="XvZ1KUAscX0kWLPO2h44-7">
          <mxGeometry x="0.49" y="2" relative="1" as="geometry">
            <mxPoint x="49" y="-12" as="offset" />
          </mxGeometry>
        </mxCell>
        <mxCell id="XvZ1KUAscX0kWLPO2h44-9" value="" style="swimlane;startSize=0;" vertex="1" parent="1">
          <mxGeometry x="10" y="300" width="760" height="110" as="geometry" />
        </mxCell>
        <mxCell id="XvZ1KUAscX0kWLPO2h44-10" value="&lt;b&gt;Если&lt;/b&gt;" style="rounded=0;whiteSpace=wrap;html=1;" vertex="1" parent="XvZ1KUAscX0kWLPO2h44-9">
          <mxGeometry width="70" height="40" as="geometry" />
        </mxCell>
        <mxCell id="XvZ1KUAscX0kWLPO2h44-14" value="" style="endArrow=classic;html=1;rounded=0;" edge="1" parent="XvZ1KUAscX0kWLPO2h44-9">
          <mxGeometry width="50" height="50" relative="1" as="geometry">
            <mxPoint x="260" y="80" as="sourcePoint" />
            <mxPoint x="60" y="80" as="targetPoint" />
          </mxGeometry>
        </mxCell>
        <mxCell id="XvZ1KUAscX0kWLPO2h44-15" value="&lt;font style=&quot;font-size: 12px;&quot;&gt;2. Сообщение об ошибке&lt;/font&gt;" style="edgeLabel;html=1;align=center;verticalAlign=middle;resizable=0;points=[];" vertex="1" connectable="0" parent="XvZ1KUAscX0kWLPO2h44-14">
          <mxGeometry x="0.49" y="2" relative="1" as="geometry">
            <mxPoint x="49" y="-12" as="offset" />
          </mxGeometry>
        </mxCell>
        <mxCell id="XvZ1KUAscX0kWLPO2h44-11" value="" style="endArrow=classic;html=1;rounded=0;" edge="1" parent="1">
          <mxGeometry width="50" height="50" relative="1" as="geometry">
            <mxPoint x="486" y="335" as="sourcePoint" />
            <mxPoint x="286" y="335" as="targetPoint" />
          </mxGeometry>
        </mxCell>
        <mxCell id="XvZ1KUAscX0kWLPO2h44-12" value="&lt;font style=&quot;font-size: 12px;&quot;&gt;1. Пользователь не найден&lt;/font&gt;" style="edgeLabel;html=1;align=center;verticalAlign=middle;resizable=0;points=[];" vertex="1" connectable="0" parent="XvZ1KUAscX0kWLPO2h44-11">
          <mxGeometry x="0.49" y="2" relative="1" as="geometry">
            <mxPoint x="49" y="-12" as="offset" />
          </mxGeometry>
        </mxCell>
        <mxCell id="XvZ1KUAscX0kWLPO2h44-16" value="" style="endArrow=classic;html=1;rounded=0;" edge="1" parent="1">
          <mxGeometry width="50" height="50" relative="1" as="geometry">
            <mxPoint x="480" y="440" as="sourcePoint" />
            <mxPoint x="480" y="500" as="targetPoint" />
            <Array as="points">
              <mxPoint x="450" y="440" />
              <mxPoint x="450" y="500" />
            </Array>
          </mxGeometry>
        </mxCell>
        <mxCell id="XvZ1KUAscX0kWLPO2h44-17" value="&lt;font style=&quot;font-size: 12px;&quot;&gt;5. Проверка &lt;br&gt;пароля&lt;/font&gt;" style="edgeLabel;html=1;align=center;verticalAlign=middle;resizable=0;points=[];" vertex="1" connectable="0" parent="XvZ1KUAscX0kWLPO2h44-16">
          <mxGeometry x="0.2" y="-4" relative="1" as="geometry">
            <mxPoint x="-36" y="-12" as="offset" />
          </mxGeometry>
        </mxCell>
        <mxCell id="XvZ1KUAscX0kWLPO2h44-18" value="" style="endArrow=classic;html=1;rounded=0;" edge="1" parent="1">
          <mxGeometry width="50" height="50" relative="1" as="geometry">
            <mxPoint x="486" y="555" as="sourcePoint" />
            <mxPoint x="286" y="555" as="targetPoint" />
          </mxGeometry>
        </mxCell>
        <mxCell id="XvZ1KUAscX0kWLPO2h44-19" value="&lt;font style=&quot;font-size: 12px;&quot;&gt;1. Пароль не совпадает&lt;/font&gt;" style="edgeLabel;html=1;align=center;verticalAlign=middle;resizable=0;points=[];" vertex="1" connectable="0" parent="XvZ1KUAscX0kWLPO2h44-18">
          <mxGeometry x="0.49" y="2" relative="1" as="geometry">
            <mxPoint x="49" y="-12" as="offset" />
          </mxGeometry>
        </mxCell>
        <mxCell id="XvZ1KUAscX0kWLPO2h44-20" value="" style="swimlane;startSize=0;" vertex="1" parent="1">
          <mxGeometry x="10" y="520" width="760" height="110" as="geometry" />
        </mxCell>
        <mxCell id="XvZ1KUAscX0kWLPO2h44-21" value="&lt;b&gt;Если&lt;/b&gt;" style="rounded=0;whiteSpace=wrap;html=1;" vertex="1" parent="XvZ1KUAscX0kWLPO2h44-20">
          <mxGeometry width="70" height="40" as="geometry" />
        </mxCell>
        <mxCell id="XvZ1KUAscX0kWLPO2h44-22" value="" style="endArrow=classic;html=1;rounded=0;" edge="1" parent="XvZ1KUAscX0kWLPO2h44-20">
          <mxGeometry width="50" height="50" relative="1" as="geometry">
            <mxPoint x="260" y="80" as="sourcePoint" />
            <mxPoint x="60" y="80" as="targetPoint" />
          </mxGeometry>
        </mxCell>
        <mxCell id="XvZ1KUAscX0kWLPO2h44-23" value="&lt;font style=&quot;font-size: 12px;&quot;&gt;2. Сообщение об ошибке&lt;/font&gt;" style="edgeLabel;html=1;align=center;verticalAlign=middle;resizable=0;points=[];" vertex="1" connectable="0" parent="XvZ1KUAscX0kWLPO2h44-22">
          <mxGeometry x="0.49" y="2" relative="1" as="geometry">
            <mxPoint x="49" y="-12" as="offset" />
          </mxGeometry>
        </mxCell>
        <mxCell id="XvZ1KUAscX0kWLPO2h44-26" value="" style="endArrow=classic;html=1;rounded=0;" edge="1" parent="1">
          <mxGeometry width="50" height="50" relative="1" as="geometry">
            <mxPoint x="490" y="670" as="sourcePoint" />
            <mxPoint x="290" y="670" as="targetPoint" />
          </mxGeometry>
        </mxCell>
        <mxCell id="XvZ1KUAscX0kWLPO2h44-27" value="&lt;font style=&quot;font-size: 12px;&quot;&gt;6. Создание JWT токена&lt;/font&gt;" style="edgeLabel;html=1;align=center;verticalAlign=middle;resizable=0;points=[];" vertex="1" connectable="0" parent="XvZ1KUAscX0kWLPO2h44-26">
          <mxGeometry x="0.49" y="2" relative="1" as="geometry">
            <mxPoint x="39" y="-12" as="offset" />
          </mxGeometry>
        </mxCell>
        <mxCell id="XvZ1KUAscX0kWLPO2h44-28" value="" style="endArrow=classic;html=1;rounded=0;" edge="1" parent="1">
          <mxGeometry width="50" height="50" relative="1" as="geometry">
            <mxPoint x="270" y="710" as="sourcePoint" />
            <mxPoint x="70" y="710" as="targetPoint" />
          </mxGeometry>
        </mxCell>
        <mxCell id="XvZ1KUAscX0kWLPO2h44-29" value="&lt;font style=&quot;font-size: 12px;&quot;&gt;7. Обновление страницы&lt;/font&gt;" style="edgeLabel;html=1;align=center;verticalAlign=middle;resizable=0;points=[];" vertex="1" connectable="0" parent="XvZ1KUAscX0kWLPO2h44-28">
          <mxGeometry x="0.49" y="2" relative="1" as="geometry">
            <mxPoint x="39" y="-12" as="offset" />
          </mxGeometry>
        </mxCell>
      </root>
    </mxGraphModel>
  </diagram>
</mxfile>
